<?xml version="1.0" standalone="no"?>
<!DOCTYPE svg PUBLIC "-//W3C//DTD SVG 1.1//EN"
  "http://www.w3.org/Graphics/SVG/1.1/DTD/svg11.dtd">
<svg xmlns="http://www.w3.org/2000/svg" version="1.1" class="railroad-diagram" width="409" height="81" viewBox="0 0 409 81">
<defs><style type="text/css"><![CDATA[ svg.railroad-diagram {
  background-color: hsl(30,20%,95%);
}
svg.railroad-diagram path {
  stroke-width: 3;
  stroke: black;
  fill: none;
}
svg.railroad-diagram text {
  font: bold 14px monospace;
  text-anchor: middle;
  cursor: pointer;
}
svg.railroad-diagram text.label {
  text-anchor: start;
}
svg.railroad-diagram text.comment {
  font: italic 12px monospace;
}
svg.railroad-diagram rect {
  stroke-width: 3;
  stroke: black;
  fill: hsl(120,100%,90%);
}
 ]]></style></defs>
<g transform="translate(.5 .5)">
<path d="M 20 31 v 20 m 10 -20 v 20 m -10 -10 h 20.5"></path>
<g>
<path d="M40 41h0"></path>
<path d="M368 41h0"></path>
<path d="M40 41h10"></path>
<g>
<path d="M50 41h0"></path>
<path d="M78 41h0"></path>
<rect x="50" y="30" width="28" height="22" rx="10" ry="10"></rect>
<text x="64" y="45">(</text>
</g>
<path d="M78 41h10"></path>
<path d="M88 41h10"></path>
<g>
<path d="M98 41h0"></path>
<path d="M198 41h0"></path>
<rect x="98" y="30" width="100" height="22"></rect>
<text x="148" y="45">Identifier</text>
</g>
<path d="M198 41h10"></path>
<g>
<path d="M208 41h0"></path>
<path d="M320 41h0"></path>
<path d="M208 41a10 10 0 0 0 10 -10v0a10 10 0 0 1 10 -10"></path>
<g>
<path d="M228 21h72"></path>
</g>
<path d="M300 21a10 10 0 0 1 10 10v0a10 10 0 0 0 10 10"></path>
<path d="M208 41h20"></path>
<g>
<path d="M228 41h0"></path>
<path d="M300 41h0"></path>
<path d="M228 41h10"></path>
<g>
<path d="M238 41h0"></path>
<path d="M290 41h0"></path>
<rect x="238" y="30" width="52" height="22"></rect>
<text x="264" y="45">Atom</text>
</g>
<path d="M290 41h10"></path>
<path d="M238 41a10 10 0 0 0 -10 10v0a10 10 0 0 0 10 10"></path>
<g>
<path d="M238 61h52"></path>
</g>
<path d="M290 61a10 10 0 0 0 10 -10v0a10 10 0 0 0 -10 -10"></path>
</g>
<path d="M300 41h20"></path>
</g>
<path d="M320 41h10"></path>
<g>
<path d="M330 41h0"></path>
<path d="M358 41h0"></path>
<rect x="330" y="30" width="28" height="22" rx="10" ry="10"></rect>
<text x="344" y="45">)</text>
</g>
<path d="M358 41h10"></path>
</g>
<path d="M 368 41 h 20 m -10 -10 v 20 m 10 -20 v 20"></path>
</g>
</svg>
