<?xml version="1.0" standalone="no"?>
<!DOCTYPE svg PUBLIC "-//W3C//DTD SVG 1.1//EN"
  "http://www.w3.org/Graphics/SVG/1.1/DTD/svg11.dtd">
<svg xmlns="http://www.w3.org/2000/svg" version="1.1" class="railroad-diagram" width="557" height="72" viewBox="0 0 557 72">
<defs><style type="text/css"><![CDATA[ svg.railroad-diagram {
  background-color: hsl(30,20%,95%);
}
svg.railroad-diagram path {
  stroke-width: 3;
  stroke: black;
  fill: none;
}
svg.railroad-diagram text {
  font: bold 14px monospace;
  text-anchor: middle;
  cursor: pointer;
}
svg.railroad-diagram text.label {
  text-anchor: start;
}
svg.railroad-diagram text.comment {
  font: italic 12px monospace;
}
svg.railroad-diagram rect {
  stroke-width: 3;
  stroke: black;
  fill: hsl(120,100%,90%);
}
 ]]></style></defs>
<g transform="translate(.5 .5)">
<path d="M 20 31 v 20 m 10 -20 v 20 m -10 -10 h 20.5"></path>
<g>
<path d="M40 41h0"></path>
<path d="M516 41h0"></path>
<path d="M40 41h10"></path>
<g>
<path d="M50 41h0"></path>
<path d="M78 41h0"></path>
<rect x="50" y="30" width="28" height="22" rx="10" ry="10"></rect>
<text x="64" y="45">(</text>
</g>
<path d="M78 41h10"></path>
<path d="M88 41h10"></path>
<g>
<path d="M98 41h0"></path>
<path d="M166 41h0"></path>
<rect x="98" y="30" width="68" height="22" rx="10" ry="10"></rect>
<text x="132" y="45">define</text>
</g>
<path d="M166 41h10"></path>
<path d="M176 41h10"></path>
<g>
<path d="M186 41h0"></path>
<path d="M286 41h0"></path>
<rect x="186" y="30" width="100" height="22"></rect>
<text x="236" y="45">Identifier</text>
</g>
<path d="M286 41h10"></path>
<g>
<path d="M296 41h0"></path>
<path d="M388 41h0"></path>
<path d="M296 41a10 10 0 0 0 10 -10v0a10 10 0 0 1 10 -10"></path>
<g>
<path d="M316 21h52"></path>
</g>
<path d="M368 21a10 10 0 0 1 10 10v0a10 10 0 0 0 10 10"></path>
<path d="M296 41h20"></path>
<g>
<path d="M316 41h0"></path>
<path d="M368 41h0"></path>
<rect x="316" y="30" width="52" height="22"></rect>
<text x="342" y="45">List</text>
</g>
<path d="M368 41h20"></path>
</g>
<path d="M388 41h10"></path>
<g>
<path d="M398 41h0"></path>
<path d="M458 41h0"></path>
<rect x="398" y="30" width="60" height="22"></rect>
<text x="428" y="45">Block</text>
</g>
<path d="M458 41h10"></path>
<path d="M468 41h10"></path>
<g>
<path d="M478 41h0"></path>
<path d="M506 41h0"></path>
<rect x="478" y="30" width="28" height="22" rx="10" ry="10"></rect>
<text x="492" y="45">)</text>
</g>
<path d="M506 41h10"></path>
</g>
<path d="M 516 41 h 20 m -10 -10 v 20 m 10 -20 v 20"></path>
</g>
</svg>
